<?xml version="1.0" standalone="no"?>
<!DOCTYPE svg PUBLIC "-//W3C//DTD SVG 20010904//EN"
 "http://www.w3.org/TR/2001/REC-SVG-20010904/DTD/svg10.dtd">
<svg version="1.0" xmlns="http://www.w3.org/2000/svg"
 width="640.000000pt" height="640.000000pt" viewBox="0 0 640.000000 640.000000"
 preserveAspectRatio="xMidYMid meet">
<metadata>
Created by potrace 1.14, written by Peter Selinger 2001-2017
</metadata>
<g transform="translate(0.000000,640.000000) scale(0.100000,-0.100000)"
fill="#000000" stroke="none">
<path d="M5890 6089 c0 -4 -14 -5 -31 -3 -22 3 -28 0 -23 -9 6 -9 5 -9 -8 0
-8 7 -18 10 -21 7 -3 -4 -30 -8 -59 -9 -52 -4 -155 -19 -213 -32 -16 -4 -44
-7 -62 -7 -17 -1 -29 -4 -27 -7 8 -14 -29 -19 -44 -7 -12 10 -14 10 -8 1 4 -9
1 -14 -11 -15 -24 -2 -35 -4 -53 -11 -8 -3 -28 -9 -45 -13 -40 -10 -44 -11
-50 -14 -3 -1 -8 -3 -12 -4 -42 -9 -123 -41 -123 -48 0 -5 -5 -6 -10 -3 -6 4
-22 -1 -36 -10 -15 -9 -34 -15 -45 -12 -10 3 -24 -2 -30 -9 -7 -8 -18 -13 -25
-10 -8 3 -11 0 -8 -9 4 -10 0 -13 -15 -10 -12 2 -21 -1 -21 -6 0 -6 -4 -8 -9
-4 -5 3 -16 -1 -24 -9 -8 -8 -17 -12 -21 -9 -3 4 -6 1 -6 -5 0 -7 -9 -12 -19
-12 -11 0 -23 -5 -26 -10 -4 -6 -10 -8 -15 -5 -4 3 -11 -2 -14 -11 -3 -8 -11
-12 -17 -9 -5 4 -18 0 -28 -9 -10 -9 -23 -16 -27 -14 -5 2 -20 -7 -33 -19 -13
-12 -28 -20 -33 -17 -4 3 -8 0 -8 -6 0 -9 -22 -21 -55 -30 -5 -2 -15 -10 -21
-18 -6 -8 -16 -12 -22 -8 -8 5 -10 2 -6 -9 5 -11 2 -14 -12 -8 -13 5 -15 3 -9
-7 6 -10 4 -12 -8 -7 -10 4 -16 2 -14 -5 1 -7 -4 -12 -11 -13 -7 0 -17 -7 -22
-15 -5 -8 -10 -10 -10 -5 0 6 -7 1 -15 -9 -8 -11 -15 -16 -15 -12 0 4 -6 1
-14 -6 -28 -26 -80 -63 -83 -60 -3 2 -13 -6 -22 -17 -10 -12 -23 -21 -29 -21
-5 0 -12 -9 -15 -20 -3 -13 -14 -20 -28 -20 -12 0 -19 -3 -16 -7 4 -3 -11 -19
-33 -35 -22 -17 -37 -34 -34 -39 3 -5 2 -9 -3 -8 -19 3 -34 -2 -28 -10 3 -5
-4 -13 -16 -16 -11 -4 -18 -9 -15 -12 7 -8 -56 -63 -66 -57 -5 3 -7 1 -6 -5 2
-5 -6 -17 -17 -26 -11 -9 -13 -13 -5 -9 8 4 -16 -23 -55 -61 -38 -37 -64 -65
-58 -61 9 5 11 2 7 -9 -4 -9 -12 -14 -19 -11 -8 3 -16 -2 -19 -10 -4 -10 -1
-13 7 -9 6 4 3 -1 -7 -9 -11 -9 -24 -16 -29 -16 -4 0 -6 -4 -3 -9 3 -5 -16
-15 -42 -22 -59 -17 -73 -17 -92 -2 -25 20 -72 21 -137 2 -34 -9 -64 -15 -67
-11 -3 3 -6 0 -6 -6 0 -7 -3 -11 -7 -11 -5 1 -11 0 -15 -1 -5 -1 -11 -3 -15
-5 -21 -5 -71 -26 -95 -39 -20 -11 -28 -11 -32 -3 -3 9 -5 8 -5 0 -1 -7 -8
-13 -16 -13 -8 0 -15 -4 -15 -8 0 -5 -6 -9 -12 -10 -20 -1 -40 -8 -73 -22 -16
-7 -33 -14 -37 -15 -5 -2 -9 -3 -10 -5 -2 -1 -10 -3 -18 -5 -8 -2 -28 -9 -45
-16 -16 -7 -32 -13 -35 -14 -3 -1 -18 -7 -33 -13 -16 -7 -37 -12 -47 -12 -10
0 -20 -4 -22 -9 -1 -6 -14 -12 -28 -15 -32 -6 -250 -83 -258 -90 -3 -3 -16 -6
-28 -6 -13 0 -25 -4 -28 -9 -4 -5 -24 -12 -46 -16 -22 -4 -40 -11 -40 -16 0
-6 -5 -7 -10 -4 -6 4 -17 1 -25 -5 -8 -7 -15 -9 -15 -6 0 4 -9 2 -21 -4 -20
-11 -61 -22 -86 -23 -7 0 -13 -3 -13 -7 0 -4 -21 -12 -47 -18 -27 -6 -61 -16
-78 -23 -16 -7 -34 -11 -39 -10 -4 1 -14 -3 -22 -10 -7 -6 -18 -8 -24 -4 -5 3
-10 1 -10 -5 0 -6 -4 -8 -10 -5 -5 3 -10 2 -10 -4 0 -5 -8 -8 -17 -6 -10 1
-30 -4 -45 -12 -15 -7 -31 -14 -35 -14 -5 -1 -19 -6 -33 -11 -14 -6 -65 -12
-115 -13 -49 -2 -90 -4 -90 -5 0 -1 -9 -3 -19 -5 -45 -8 -106 -30 -106 -37 0
-4 -3 -7 -8 -7 -21 4 -42 -3 -56 -17 -9 -8 -16 -13 -16 -9 0 3 -29 -10 -64
-29 -35 -19 -66 -32 -70 -29 -3 4 -6 1 -6 -6 0 -8 -6 -11 -16 -7 -8 3 -12 2
-9 -3 3 -5 -5 -13 -17 -17 -13 -3 -29 -11 -37 -17 -12 -11 -32 -17 -58 -19 -7
-1 -10 -4 -8 -8 2 -4 -36 -25 -85 -48 -49 -23 -92 -47 -95 -52 -3 -6 -12 -10
-20 -10 -13 0 -72 -35 -101 -59 -7 -6 -15 -7 -18 -4 -3 4 -6 1 -6 -6 0 -7 -4
-10 -9 -7 -5 3 -14 -1 -21 -9 -7 -8 -16 -13 -20 -10 -4 2 -15 -4 -25 -15 -10
-11 -24 -20 -32 -20 -7 0 -13 -4 -13 -9 0 -5 -10 -13 -22 -17 -23 -7 -37 -17
-68 -48 -11 -11 -20 -16 -20 -12 0 10 -75 -48 -118 -91 -18 -18 -38 -33 -44
-33 -6 0 -9 -3 -5 -6 3 -3 -6 -18 -21 -33 -37 -36 -82 -97 -82 -110 0 -6 -9
-20 -20 -31 -11 -11 -18 -20 -16 -20 9 0 -17 -65 -28 -72 -8 -5 -7 -8 1 -8 7
0 10 -7 7 -15 -4 -8 -9 -13 -13 -11 -8 5 -9 -3 -15 -136 -5 -87 0 -121 22
-178 7 -19 9 -28 11 -41 0 -5 6 -7 13 -3 6 4 8 3 5 -3 -7 -11 39 -83 53 -83 6
0 10 -6 10 -14 0 -8 9 -18 20 -21 11 -3 20 -11 20 -16 0 -5 6 -9 14 -9 8 0 17
-7 20 -16 3 -8 10 -13 15 -10 5 4 17 -1 25 -10 9 -8 16 -12 16 -9 0 4 16 -2
36 -14 19 -12 42 -21 50 -21 8 0 13 -4 9 -9 -3 -6 4 -8 15 -6 14 3 20 -1 20
-13 0 -15 2 -15 10 -2 6 10 10 11 10 3 0 -7 9 -13 21 -13 11 0 18 -4 15 -9 -3
-5 1 -12 10 -15 10 -4 13 -2 8 7 -4 6 2 4 14 -6 12 -11 38 -20 60 -20 22 -1
37 -6 34 -11 -3 -5 2 -7 11 -3 9 3 18 3 21 -1 2 -4 32 -6 65 -5 38 1 59 -2 55
-9 -3 -5 3 -4 14 3 16 10 23 10 35 0 11 -9 17 -9 22 -1 4 7 22 10 41 8 19 -2
34 -2 34 2 0 3 21 5 47 4 27 0 53 2 58 5 6 3 21 7 35 9 14 2 26 7 28 11 1 4
16 6 32 5 17 -1 30 2 30 7 0 5 3 8 7 8 5 -1 11 0 16 1 4 1 12 4 17 5 6 1 12 4
15 5 3 1 8 3 13 4 4 1 30 13 57 26 28 13 53 23 58 22 4 -1 7 3 7 8 0 6 11 15
24 20 34 12 145 92 193 137 13 12 23 20 23 17 0 -3 15 12 34 35 18 22 40 47
47 55 31 34 39 46 39 56 0 5 4 10 9 10 10 0 66 82 63 93 -1 4 2 7 8 7 5 0 17
16 26 35 9 19 20 35 24 35 5 0 16 7 24 16 9 9 22 17 29 18 6 2 43 17 80 34 38
18 73 29 79 26 6 -4 8 -2 5 3 -8 12 20 26 34 17 5 -3 9 0 9 5 0 6 3 10 8 9 4
-1 38 13 75 32 72 36 197 147 197 176 0 8 5 12 10 9 6 -3 10 0 10 8 0 8 7 20
15 27 8 6 13 15 12 18 -1 4 4 26 12 48 11 35 20 44 52 54 22 8 44 19 50 27 6
7 15 13 20 13 5 0 44 17 86 37 43 20 81 36 86 35 4 -1 7 2 7 7 0 6 9 8 20 6
11 -2 18 0 15 6 -6 8 8 13 28 10 4 0 7 4 7 10 0 5 4 8 9 5 5 -4 29 3 54 13 25
11 48 17 51 14 3 -4 6 -1 6 5 0 6 9 9 21 7 15 -3 19 0 15 10 -7 19 -1 19 18
-1 15 -14 16 -14 16 0 0 9 5 16 11 16 5 0 7 -6 4 -12 -4 -7 1 -4 9 6 9 11 17
17 17 13 5 -26 4 -33 -4 -44 -5 -7 -5 -18 -1 -25 6 -10 5 -11 -7 -1 -14 11
-16 8 -14 -18 1 -16 -2 -32 -6 -35 -5 -2 -5 -12 -2 -21 4 -10 2 -14 -4 -10 -6
4 -10 -6 -11 -24 0 -17 -5 -36 -11 -43 -7 -9 -7 -16 2 -26 9 -10 9 -11 0 -6
-13 7 -15 -1 -16 -51 0 -13 -4 -23 -8 -23 -5 0 -9 -5 -9 -11 0 -5 6 -7 13 -3
9 6 9 4 -1 -8 -7 -9 -12 -25 -10 -35 2 -11 -2 -17 -11 -15 -11 2 -12 0 -3 -10
7 -8 7 -19 2 -28 -6 -9 -4 -20 3 -29 10 -12 9 -13 -2 -6 -11 6 -13 4 -8 -7 3
-9 0 -21 -6 -28 -9 -10 -9 -11 0 -6 9 5 11 2 7 -8 -3 -9 -11 -16 -18 -16 -6 0
-5 -4 3 -9 8 -5 10 -14 5 -22 -13 -21 -14 -59 -1 -59 8 0 7 -4 -2 -9 -8 -5
-11 -16 -8 -25 4 -9 1 -16 -6 -16 -8 0 -6 -4 3 -10 8 -5 10 -10 5 -10 -6 0
-11 -9 -12 -20 -1 -12 3 -18 9 -14 7 4 7 0 1 -12 -5 -11 -9 -26 -8 -34 1 -8
-3 -20 -7 -27 -5 -6 -4 -14 2 -18 8 -5 7 -11 -1 -22 -8 -9 -9 -17 -3 -21 12
-9 12 -45 -1 -54 -6 -5 -5 -8 4 -8 11 0 11 -3 1 -15 -7 -8 -8 -15 -3 -15 11 0
9 -42 -3 -61 -4 -7 -3 -10 2 -6 6 3 11 -18 11 -51 3 -104 6 -127 17 -134 7 -5
6 -8 -3 -8 -11 0 -11 -3 0 -17 12 -15 12 -16 -1 -8 -13 8 -13 7 -1 -8 11 -14
11 -17 0 -17 -9 0 -10 -3 -3 -8 6 -4 11 -14 12 -22 0 -8 3 -24 5 -35 2 -11 0
-26 -5 -32 -7 -9 -6 -15 5 -19 20 -7 29 -32 15 -40 -7 -5 -8 -2 -3 6 6 9 4 11
-5 5 -10 -6 -9 -11 5 -22 12 -8 14 -13 6 -13 -9 0 -10 -4 -4 -12 5 -7 9 -22 9
-33 -1 -11 7 -35 17 -53 10 -19 12 -30 6 -26 -9 5 -10 2 -4 -12 4 -10 10 -30
13 -44 2 -14 9 -30 14 -37 6 -7 4 -13 -4 -16 -10 -4 -10 -6 0 -6 7 -1 12 -14
12 -31 0 -16 5 -30 11 -30 6 0 9 -7 6 -15 -4 -8 -2 -17 4 -20 5 -4 7 -10 4
-15 -3 -5 -1 -11 5 -15 5 -3 10 -15 10 -26 0 -10 4 -19 8 -19 4 0 9 -14 10
-31 1 -17 9 -41 18 -54 9 -13 13 -29 10 -34 -4 -5 -1 -13 5 -17 8 -5 9 -3 4 6
-5 8 -4 11 3 6 6 -4 9 -13 6 -20 -3 -8 -1 -17 5 -21 6 -3 11 -15 11 -25 0 -10
6 -21 13 -23 9 -4 9 -6 -2 -6 -8 -1 -5 -9 10 -22 13 -11 18 -18 12 -14 -9 4
-11 1 -7 -9 3 -9 11 -13 17 -9 6 4 8 0 4 -10 -3 -10 -2 -17 4 -17 6 0 8 -4 4
-9 -3 -5 -1 -12 5 -16 6 -4 8 -11 5 -16 -4 -5 -1 -9 4 -9 6 0 11 -9 11 -21 0
-13 4 -18 12 -13 7 5 9 2 5 -9 -3 -9 0 -18 9 -21 8 -3 14 -12 14 -21 0 -8 5
-15 11 -15 8 0 8 -4 0 -14 -9 -11 -9 -16 0 -22 8 -4 9 -3 5 4 -4 7 -2 12 5 12
7 0 9 -10 6 -25 -2 -14 -2 -24 1 -21 6 6 32 -20 32 -32 0 -5 6 -15 14 -22 8
-6 12 -18 9 -26 -3 -8 -2 -14 3 -12 5 2 10 -1 11 -5 1 -4 9 -15 18 -23 8 -9
12 -20 9 -26 -5 -7 -2 -8 6 -3 10 6 12 4 7 -8 -4 -11 -2 -14 9 -10 10 4 14 -2
14 -21 0 -14 3 -25 8 -23 4 1 9 -3 11 -8 9 -19 26 -33 35 -27 5 3 7 -2 4 -10
-4 -8 2 -21 12 -28 11 -8 17 -17 14 -22 -3 -4 2 -8 11 -8 9 0 13 -4 10 -10 -3
-5 -1 -10 5 -10 6 0 8 -5 5 -10 -3 -5 1 -10 9 -10 9 0 15 -3 14 -7 -3 -8 20
-38 59 -78 12 -13 19 -26 16 -29 -4 -3 0 -6 8 -6 8 0 19 -10 24 -22 6 -13 20
-28 32 -34 13 -6 20 -14 16 -17 -3 -4 2 -7 13 -7 16 0 17 -2 4 -10 -13 -8 -13
-10 1 -10 9 0 20 -7 23 -16 3 -8 10 -12 16 -9 5 3 10 -1 10 -9 0 -8 9 -20 20
-26 11 -6 20 -18 20 -28 0 -15 2 -15 10 -2 8 13 10 12 10 -4 0 -12 5 -16 15
-12 8 3 14 2 14 -2 -3 -19 2 -32 14 -32 7 0 19 -9 27 -20 8 -11 19 -20 24 -20
5 0 23 -16 41 -34 18 -19 35 -32 39 -29 3 4 6 1 6 -6 0 -7 5 -9 10 -6 6 3 10
-1 10 -10 0 -9 5 -13 10 -10 6 3 10 -2 11 -12 0 -11 3 -13 6 -5 3 8 14 2 33
-18 15 -16 35 -30 45 -30 9 0 13 -5 9 -11 -4 -7 -1 -10 7 -7 7 2 24 -7 37 -21
13 -14 27 -26 30 -26 4 0 6 -3 5 -7 -2 -4 3 -5 11 -2 7 3 19 -2 26 -11 7 -8
19 -15 26 -15 8 0 14 -5 14 -11 0 -6 7 -8 16 -5 8 3 13 2 10 -3 -6 -8 49 -40
68 -39 5 0 13 -7 18 -16 5 -9 13 -14 19 -11 5 4 9 2 9 -3 0 -6 11 -13 25 -16
14 -4 25 -11 25 -16 0 -5 7 -7 15 -4 8 4 17 -1 21 -10 3 -9 9 -14 13 -11 4 2
19 -2 34 -10 14 -7 28 -11 31 -7 3 3 6 0 6 -6 0 -10 67 -38 83 -34 4 1 7 -3 7
-8 0 -6 9 -10 19 -10 11 0 23 -5 26 -10 4 -6 10 -8 15 -5 5 3 11 1 15 -5 4 -6
11 -8 16 -5 5 4 9 1 9 -5 0 -6 4 -9 9 -5 5 3 12 1 16 -5 4 -6 10 -8 15 -5 5 3
11 1 15 -5 3 -5 17 -10 31 -10 13 0 24 -4 24 -8 0 -5 7 -9 15 -9 24 0 99 -26
107 -38 5 -6 8 -5 8 3 0 10 5 10 20 2 11 -6 20 -8 20 -4 0 3 7 1 15 -6 8 -6
19 -9 25 -5 5 3 10 3 10 -2 0 -4 17 -9 37 -11 20 -1 42 -7 50 -13 10 -9 13 -8
13 1 0 9 4 9 13 2 12 -10 66 -22 123 -27 17 -1 35 -4 40 -7 5 -2 19 -3 32 -2
12 0 22 -3 22 -7 0 -5 11 -4 24 1 18 6 28 5 36 -5 9 -10 17 -12 30 -5 9 5 20
7 23 3 3 -3 32 -6 64 -7 32 0 64 -5 72 -10 9 -6 12 -5 8 1 -4 5 6 10 23 10 16
0 27 -5 23 -10 -3 -5 2 -5 13 0 22 11 64 11 82 0 6 -5 12 -5 12 0 0 4 35 9 78
11 42 1 97 4 122 5 l45 3 3 2883 c1 1781 -2 2880 -7 2876 -5 -3 -13 -1 -16 5
-5 8 -11 8 -20 0 -8 -6 -16 -7 -19 -2 -6 10 -76 14 -303 16 -79 0 -143 -2
-143 -5z"/>
</g>
</svg>
